<?xml version="1.0" encoding="utf-8"?>
<!-- Generator: Adobe Illustrator 25.4.0, SVG Export Plug-In . SVG Version: 6.00 Build 0)  -->
<svg version="1.1" id="Слой_1" xmlns="http://www.w3.org/2000/svg" xmlns:xlink="http://www.w3.org/1999/xlink" x="0px" y="0px"
	 viewBox="0 0 24 24" style="enable-background:new 0 0 24 24;" xml:space="preserve">
<style type="text/css">
	.st0{fill:#67420B;}
</style>
<path class="st0" d="M23.5,5.8c-0.3,0.8-0.6,1.6-1.1,2.3l0,0c-0.4,0.7-1,1.6-1.6,2.6c-0.5,0.8-0.8,1.2-0.8,1.2
	c-0.1,0.2-0.2,0.4-0.3,0.6l0,0c0,0.2,0.1,0.4,0.3,0.5l0.4,0.4c2.1,2.2,3.3,3.7,3.6,4.5c0,0.1,0.1,0.2,0.1,0.3c0,0.2-0.1,0.4-0.2,0.5
	l0,0c-0.2,0.2-0.4,0.3-0.7,0.3c0,0-0.1,0-0.1,0h0h-2.6c0,0,0,0,0,0c-0.3,0-0.6-0.1-0.9-0.3l0,0c-0.4-0.3-0.7-0.6-1-0.9l0,0
	c-0.5-0.5-0.9-1-1.2-1.3c-1.2-1.1-2.1-1.7-2.6-1.7c0,0,0,0-0.1,0c-0.2,0-0.3,0.1-0.4,0.1l0,0c-0.1,0.1-0.2,0.3-0.2,0.5
	c0,0,0,0.1,0,0.1v0c0,0.3,0,0.7,0,1c0,0.1,0,0.2,0,0.4v0V18c0,0,0,0.1,0,0.2c0,0.2-0.1,0.5-0.3,0.6l0,0c-0.4,0.2-0.8,0.3-1.3,0.3
	c-0.1,0-0.2,0-0.3,0l0,0c-1.6,0-3-0.5-4.3-1.3l0,0c-1.5-0.9-2.8-2.1-3.7-3.5l0,0c-0.9-1.2-1.8-2.6-2.5-4l-0.1-0.2
	C1.2,9.3,0.8,8.3,0.4,7.3L0.3,7.1C0.2,6.7,0.1,6.1,0,5.6l0,0c0-0.5,0.3-0.8,0.9-0.8h2.6c0,0,0.1,0,0.1,0c0.2,0,0.5,0.1,0.7,0.2l0,0
	c0.2,0.2,0.3,0.5,0.4,0.8l0,0c0.5,1.4,1,2.5,1.6,3.6L6.2,9.3c0.5,1,1,1.8,1.6,2.6l0,0c0.5,0.7,0.9,1,1.2,1c0,0,0,0,0,0
	c0.1,0,0.3-0.1,0.3-0.2l0,0c0.1-0.2,0.1-0.4,0.1-0.6c0,0,0-0.1,0-0.1v0V8c0-0.5-0.1-0.9-0.3-1.3l0,0C9.1,6.5,9,6.2,8.8,6l0,0
	C8.6,5.9,8.5,5.7,8.5,5.4l0,0c0-0.2,0.1-0.3,0.2-0.4l0,0C8.8,4.9,9,4.8,9.1,4.8h0h4.1c0,0,0,0,0.1,0c0.2,0,0.4,0.1,0.5,0.2l0,0
	C14,5.2,14,5.4,14,5.7c0,0,0,0.1,0,0.1v0V11c0,0,0,0.1,0,0.1c0,0.2,0.1,0.4,0.1,0.5l0,0c0.1,0.1,0.2,0.2,0.3,0.2h0
	c0.2,0,0.3-0.1,0.5-0.2l0,0c0.3-0.2,0.5-0.4,0.7-0.6l0,0c0.6-0.7,1.2-1.4,1.7-2.2l0-0.1c0.3-0.6,0.7-1.3,1.1-2l0.1-0.1l0.4-0.9
	c0.2-0.4,0.6-0.8,1.1-0.8c0,0,0,0,0.1,0h0h2.6C23.4,4.8,23.6,5.1,23.5,5.8L23.5,5.8z"/>
</svg>
